HIERARCHY
ROOT hip
{
	OFFSET 0.000000 0.000000 0.000000 
	CHANNELS 6 Xposition Yposition Zposition Xrotation Zrotation Yrotation
	JOINT abdomen
	{
		OFFSET 0.000000 3.402643 0.000000 
		CHANNELS 3 Xrotation Zrotation Yrotation
		JOINT chest
		{
			OFFSET 0.000000 8.438565 -0.680529 
			CHANNELS 3 Xrotation Zrotation Yrotation
			JOINT neck
			{
				OFFSET 0.000000 10.207942 -0.272212 
				CHANNELS 3 Xrotation Zrotation Yrotation
				JOINT head
				{
					OFFSET 0.000000 3.130431 0.000000 
					CHANNELS 3 Xrotation Zrotation Yrotation
					End Site
					{
						OFFSET 0.000000 3.130435 0.000000 
					}
				}
			}
			JOINT lCollar
			{
				OFFSET 3.470700 6.669187 -0.816635 
				CHANNELS 3 Yrotation Zrotation Xrotation
				JOINT lShldr
				{
					OFFSET 3.198488 0.000000 0.000000 
					CHANNELS 3 Zrotation Yrotation Xrotation
					JOINT lForeArm
					{
						OFFSET 10.139888 0.000000 0.000000 
						CHANNELS 3 Yrotation Zrotation Xrotation
						JOINT lHand
						{
							OFFSET 8.370511 0.000000 0.000000 
							CHANNELS 3 Zrotation Yrotation Xrotation
							End Site
							{
								OFFSET 4.083176 0.000000 0.000000 
							}
						}
					}
				}
			}
			JOINT rCollar
			{
				OFFSET -3.470700 6.669187 -0.816635 
				CHANNELS 3 Yrotation Zrotation Xrotation
				JOINT rShldr
				{
					OFFSET -3.198488 0.000000 0.000000 
					CHANNELS 3 Zrotation Yrotation Xrotation
					JOINT rForeArm
					{
						OFFSET -10.139888 0.000000 0.000000 
						CHANNELS 3 Yrotation Zrotation Xrotation
						JOINT rHand
						{
							OFFSET -8.370511 0.000000 0.000000 
							CHANNELS 3 Zrotation Yrotation Xrotation
							End Site
							{
								OFFSET -4.083176 0.000000 0.000000 
							}
						}
					}
				}
			}
		}
	}
	JOINT lThigh
	{
		OFFSET 5.308129 -1.633274 1.361059 
		CHANNELS 3 Xrotation Zrotation Yrotation
		JOINT lShin
		{
			OFFSET -2.041588 -20.007561 0.000000 
			CHANNELS 3 Xrotation Zrotation Yrotation
			JOINT lFoot
			{
				OFFSET 0.000000 -19.190928 -1.224953 
				CHANNELS 3 Xrotation Yrotation Zrotation
				End Site
				{
					OFFSET 0.000000 -2.449906 4.627600 
				}
			}
		}
	}
	JOINT rThigh
	{
		OFFSET -5.308129 -1.633274 1.361059 
		CHANNELS 3 Xrotation Zrotation Yrotation
		JOINT rShin
		{
			OFFSET 2.041588 -20.007561 0.000000 
			CHANNELS 3 Xrotation Zrotation Yrotation
			JOINT rFoot
			{
				OFFSET 0.000000 -19.190928 -1.224953 
				CHANNELS 3 Xrotation Yrotation Zrotation
				End Site
				{
					OFFSET 0.000000 -2.449906 4.627600 
				}
			}
		}
	}
}
MOTION
Frames: 10
Frame Time: 0.016667
-27.288303 44.842083 -124.976456 10.687700 1.583390 -14.095600 -19.039801 2.953830 -1.214660 16.191601 3.787840 -0.356648 1.634400 -9.997150 9.192660 8.935100 2.315170 4.341170 2.000000 -2.000000 0.000000 -92.608101 1.004830 149.500000 21.054899 -0.342437 0.049178 0.044750 -0.006125 -139.108994 -2.000000 2.000000 0.000000 86.053497 -5.588680 114.691002 -24.482700 0.339272 0.056660 -0.055824 -0.011583 -129.274994 -24.514011 -3.908977 10.186954 6.269567 0.609286 1.385367 7.485641 7.376194 0.600498 -8.935814 -0.667090 0.805755 43.690502 -2.620442 -2.950668 3.129570 2.428210 -0.198251 
-27.178885 44.951904 -124.250755 10.433700 1.584700 -13.194400 -18.770599 2.633000 -0.873787 16.516500 3.360790 -0.207534 2.024070 -10.123700 8.875860 9.267170 2.274390 4.165460 2.000000 -2.000000 0.000000 -94.365402 2.234440 149.076996 20.068600 -0.343263 0.046974 0.044773 -0.006699 -139.313995 -2.000000 2.000000 0.000000 88.363899 -5.816060 117.336998 -25.683901 0.338057 0.059256 -0.055360 -0.007783 -130.641998 -23.100151 -4.581265 10.507563 5.459391 0.455187 1.387946 8.286782 6.156826 0.589780 -9.534458 -1.047276 0.481002 46.022572 -2.487012 -3.087269 5.920550 2.607873 -0.381308 
-27.075645 45.023151 -123.554253 10.100800 1.432530 -12.205600 -18.915899 2.547570 -0.851599 16.379400 3.389430 -0.207910 2.161090 -10.097800 8.684210 9.228250 2.303790 4.088440 2.000000 -2.000000 0.000000 -95.808998 3.989140 147.541000 18.701401 -0.344346 0.043897 0.044690 -0.004294 -138.455002 -2.000000 2.000000 0.000000 89.495300 -7.158470 121.210999 -27.051100 0.336608 0.062179 -0.054926 -0.003237 -132.272995 -21.977705 -5.139910 10.329961 5.480700 0.442981 1.406359 7.703544 5.310153 0.648907 -10.097572 -1.178146 0.194886 48.127251 -2.362000 -3.205864 8.046644 2.361007 -0.489849 
-26.972521 45.094273 -122.857758 9.758360 1.289670 -11.203800 -19.070900 2.452890 -0.826658 16.242300 3.418040 -0.218188 2.298130 -10.071800 8.492740 9.199090 2.333130 4.002020 2.000000 -2.000000 0.000000 -97.291603 5.704730 145.955994 17.334200 -0.345355 0.040795 0.044644 -0.001860 -137.585999 -2.000000 2.000000 0.000000 90.538399 -8.579510 125.065002 -28.408501 0.335101 0.065046 -0.054622 0.001293 -133.893997 -21.057219 -5.702932 10.175831 5.934608 0.524758 1.403239 6.980838 4.448149 0.639262 -10.708973 -1.304533 -0.102465 50.290962 -2.210635 -3.324210 10.159722 2.063433 -0.572320 
-26.874786 45.118324 -122.199463 9.298480 1.060110 -9.836050 -18.952299 2.364910 -0.894091 16.574900 3.438960 -0.248567 2.378630 -9.925330 8.236280 9.150560 2.391770 3.888490 2.000000 -2.000000 0.000000 -98.061203 6.912520 144.352005 15.879100 -0.346347 0.037468 0.044658 0.002871 -135.895996 -2.000000 2.000000 0.000000 90.787201 -8.866020 127.407997 -28.437799 0.335068 0.065108 -0.054570 0.002330 -134.266006 -20.048016 -6.205942 9.878504 6.370373 0.591375 1.410617 4.640177 3.805315 0.745013 -11.048447 -1.323872 -0.639554 52.051285 -2.079288 -3.425290 9.965899 1.050987 -0.481384 
-26.777052 45.142239 -121.542267 8.829080 0.839543 -8.463220 -18.823900 2.276980 -0.961346 16.907400 3.459780 -0.288479 2.449270 -9.778860 7.981450 9.102090 2.460140 3.775320 2.000000 -2.000000 0.000000 -98.869698 8.091050 142.729004 14.424000 -0.347254 0.034117 0.044814 0.007626 -134.197006 -2.000000 2.000000 0.000000 91.035797 -9.162460 129.740005 -28.467100 0.335034 0.065169 -0.054526 0.003369 -134.636993 -18.992182 -6.696243 9.566126 6.711535 0.628352 1.439874 3.686405 3.056062 0.707517 -11.397463 -1.335215 -1.196688 53.898132 -1.968966 -3.528700 9.628970 0.050016 -0.370311 
-26.674486 45.119862 -120.932274 8.428410 0.724512 -7.070270 -18.744101 2.152020 -0.905121 17.181601 3.392560 -0.258199 2.614350 -9.582390 7.600880 9.092600 2.508840 3.613210 2.000000 -2.000000 0.000000 -99.052696 8.966460 140.863998 13.584100 -0.347739 0.032172 0.045061 0.001955 -132.731995 -2.000000 2.000000 0.000000 90.656700 -8.402310 130.757004 -26.894800 0.336777 0.061847 -0.054646 0.000856 -133.738007 -18.155310 -7.209523 9.237466 7.320374 0.729021 1.444007 2.713335 2.302471 0.604545 -11.971457 -1.404462 -1.559931 55.313305 -1.855209 -3.598485 8.310839 -0.999132 -0.308180 
-26.571697 45.097363 -120.321159 8.037580 0.618861 -5.674230 -18.664400 2.030370 -0.840100 17.445900 3.334930 -0.239425 2.769640 -9.395610 7.222240 9.092960 2.567200 3.442610 2.000000 -2.000000 0.000000 -99.264900 9.832170 138.987000 12.744300 -0.348195 0.030221 0.045413 0.006042 -131.266998 -2.000000 2.000000 0.000000 90.287201 -7.632430 131.774002 -25.322500 0.338428 0.058478 -0.054805 -0.001655 -132.839996 -17.389994 -7.719212 8.937800 8.083052 0.858031 1.445902 1.654197 1.522796 0.448597 -12.615177 -1.472535 -1.916466 56.757225 -1.744445 -3.664396 7.004761 -2.031668 -0.274180 
-26.472839 45.037945 -119.748230 7.715130 0.493539 -4.239700 -18.683001 1.944480 -0.791260 17.553600 3.315760 -0.222390 3.019180 -9.254680 6.734210 9.102910 2.596320 3.221040 2.000000 -2.000000 0.000000 -99.080902 10.790600 139.776993 12.900500 -0.348113 0.030585 0.045194 0.003645 -132.126999 -2.000000 2.000000 0.000000 89.529404 -7.128310 134.050003 -24.170200 0.339579 0.055981 -0.055138 -0.005634 -131.414001 -16.967590 -8.119999 8.710539 9.247864 1.005387 1.487477 0.685925 0.703974 0.251707 -13.361266 -1.468499 -2.086715 57.632713 -1.651958 -3.715266 5.064958 -2.724158 -0.332786 
-26.373756 44.978531 -119.175308 7.392740 0.377694 -2.802490 -18.711201 1.845820 -0.748692 17.651400 3.296550 -0.205989 3.278110 -9.102980 6.258470 9.112800 2.615720 3.008370 2.000000 -2.000000 0.000000 -98.887199 11.739400 140.563995 13.066600 -0.348024 0.030971 0.045009 0.001219 -132.996002 -2.000000 2.000000 0.000000 88.791000 -6.595060 136.324997 -23.008101 0.340688 0.053440 -0.055571 -0.009603 -129.988007 -16.575392 -8.511169 8.464359 10.518927 1.165142 1.520320 -0.328019 -0.068884 0.036388 -14.068164 -1.453447 -2.265288 58.479130 -1.555407 -3.772567 3.072599 -3.397061 -0.420388 
